<?xml version="1.0"?>
<svg  xmlns="http://www.w3.org/2000/svg"  id="svg5683" viewBox="0 0 57.045 56.589" version="1.0">
  <defs id="defs3">
    <linearGradient id="linearGradient5602" y2="387.44" gradientUnits="userSpaceOnUse" x2="332.02" y1="369.98" x1="314.57">
      <stop id="stop4888" stop-color="#1c97e1" offset="0"/>
      <stop id="stop4890" stop-color="#006798" offset="1"/>
    </linearGradient>
    <linearGradient id="linearGradient6046" x1="661.46" gradientUnits="userSpaceOnUse" x2="681" gradientTransform="matrix(.80139 0 0 1.2478 -292.85 -373.34)" y1="300.41" y2="323.17">
      <stop id="stop4740" stop-color="#fff" stop-opacity=".72656" offset="0"/>
      <stop id="stop4742" stop-color="#fff" offset="1"/>
    </linearGradient>
    <linearGradient id="linearGradient6049" x1="302.74" gradientUnits="userSpaceOnUse" x2="311.27" gradientTransform="matrix(1.9519 0 0 1.8418 -374.85 -700.98)" y1="377.95" y2="390.78">
      <stop id="stop4556" stop-color="#fff" offset="0"/>
      <stop id="stop4558" stop-color="#fff" stop-opacity="0" offset="1"/>
    </linearGradient>
  </defs>
  <g id="layer1" transform="translate(-213.36 12.443)">
    <path id="path5170" style="color:black" transform="matrix(1.8961 0 0 1.8961 -374.85 -700.98)" fill="#166496" d="m339.54 378.06a13.967 13.967 0 1 1 -27.94 0 13.967 13.967 0 1 1 27.94 0z"/>
    <path id="path5172" style="color:black" d="m339.54 378.06a13.967 13.967 0 1 1 -27.94 0 13.967 13.967 0 1 1 27.94 0z" transform="matrix(1.7312 0 0 1.7312 -321.18 -638.64)" stroke="#fff" stroke-width=".72205" fill="url(#linearGradient5602)"/>
    <path id="path5174" style="color:black" fill="url(#linearGradient6049)" d="m242.43-8.3201c-13.34 0-24.17 10.828-24.17 24.175 0 6.412 2.61 12.143 6.69 16.472 2.12-17.501 16.89-31.108 34.96-31.108 0.49 0.0004 0.94 0.0994 1.42 0.1189-4.42-5.7507-11.09-9.658-18.9-9.658z"/>
    <path id="path5176" style="color:black" fill="url(#linearGradient6046)" d="m239.2 0.054592l-4.13 4.1313 11.7 11.7-11.59 11.588 4.16 4.162 15.72-15.719-15.86-15.862z"/>
  </g>
</svg>
